<svg id="svg" xmlns="http://www.w3.org/2000/svg" width="900px" height="480px"><path stroke="#ff0000" fill="transparent" d="M 0,0 L 900,0 L 900,480 L 0,480 L 0,0"></path><path stroke="#ff0000" fill="transparent" d="M 100,0 S 99.20,33.90 106.20,33.90 S 116.18,25.98 116.18,43.58 S 113.20,46.11 106.20,46.11 S 102.84,75.93 100.00,80.00 S 103.86,114.19 96.86,114.19 S 75.35,104.77 75.35,122.37 S 89.86,126.09 96.86,126.09 S 103.60,154.91 100.00,160.00 S 97.27,193.73 104.27,193.73 S 117.46,183.76 117.46,201.36 S 111.27,206.20 104.27,206.20 S 103.59,235.74 100.00,240.00 S 99.46,273.84 106.46,273.84 S 120.36,263.54 120.36,281.14 S 113.46,286.47 106.46,286.47 S 104.00,312.65 100.00,320.00 S 100.13,354.68 107.13,354.68 S 122.65,342.74 122.65,360.34 S 114.13,366.32 107.13,366.32 S 103.19,394.00 100.00,400.00 S 101.17,433.79 94.17,433.79 S 82.22,418.84 82.22,436.44 S 87.17,445.78 94.17,445.78 S 103.52,475.95 100.00,480.00 "></path><path stroke="#ff0000" fill="transparent" d="M 200,0 S 197.62,33.97 204.62,33.97 S 222.01,22.09 222.01,39.69 S 211.62,45.45 204.62,45.45 S 203.69,73.24 200.00,80.00 S 196.14,113.82 203.14,113.82 S 224.90,102.78 224.90,120.38 S 210.14,125.78 203.14,125.78 S 202.25,155.37 200.00,160.00 S 202.41,193.79 195.41,193.79 S 184.65,180.07 184.65,197.67 S 188.41,206.70 195.41,206.70 S 202.66,235.20 200.00,240.00 S 204.39,274.49 197.39,274.49 S 181.69,258.46 181.69,276.06 S 190.39,285.83 197.39,285.83 S 203.11,313.91 200.00,320.00 S 201.85,354.36 194.85,354.36 S 177.41,340.73 177.41,358.33 S 187.85,366.11 194.85,366.11 S 202.42,395.42 200.00,400.00 S 196.70,433.39 203.70,433.39 S 219.95,419.30 219.95,436.90 S 210.70,446.24 203.70,446.24 S 203.78,473.09 200.00,480.00 "></path><path stroke="#ff0000" fill="transparent" d="M 300,0 S 298.05,34.44 305.05,34.44 S 317.85,19.51 317.85,37.11 S 312.05,45.71 305.05,45.71 S 302.30,75.16 300.00,80.00 S 300.40,113.66 307.40,113.66 S 323.03,100.92 323.03,118.52 S 314.40,126.74 307.40,126.74 S 303.53,154.70 300.00,160.00 S 298.28,194.41 305.28,194.41 S 317.77,186.27 317.77,203.87 S 312.28,206.60 305.28,206.60 S 303.27,232.48 300.00,240.00 S 299.76,273.84 306.76,273.84 S 319.53,259.30 319.53,276.90 S 313.76,285.90 306.76,285.90 S 303.87,313.06 300.00,320.00 S 303.67,354.75 296.67,354.75 S 282.30,341.43 282.30,359.03 S 289.67,365.31 296.67,365.31 S 303.87,395.74 300.00,400.00 S 303.08,434.40 296.08,434.40 S 279.59,420.12 279.59,437.72 S 289.08,445.65 296.08,445.65 S 302.35,472.02 300.00,480.00 "></path><path stroke="#ff0000" fill="transparent" d="M 400,0 S 401.26,34.13 394.26,34.13 S 383.82,25.42 383.82,43.02 S 387.26,45.25 394.26,45.25 S 403.73,72.49 400.00,80.00 S 401.51,114.47 394.51,114.47 S 380.62,102.76 380.62,120.36 S 387.51,125.33 394.51,125.33 S 403.42,155.54 400.00,160.00 S 403.47,193.26 396.47,193.26 S 380.00,185.06 380.00,202.66 S 389.47,205.27 396.47,205.27 S 403.41,233.95 400.00,240.00 S 398.60,274.47 405.60,274.47 S 418.81,260.26 418.81,277.86 S 412.60,286.67 405.60,286.67 S 403.52,315.05 400.00,320.00 S 396.96,353.30 403.96,353.30 S 422.73,339.69 422.73,357.29 S 410.96,366.40 403.96,366.40 S 403.95,395.18 400.00,400.00 S 398.92,434.10 405.92,434.10 S 422.06,420.40 422.06,438.00 S 412.92,445.96 405.92,445.96 S 402.83,472.19 400.00,480.00 "></path><path stroke="#ff0000" fill="transparent" d="M 500,0 S 499.18,33.94 506.18,33.94 S 517.64,18.82 517.64,36.42 S 513.18,46.07 506.18,46.07 S 503.21,75.03 500.00,80.00 S 500.39,114.08 507.39,114.08 S 522.43,99.48 522.43,117.08 S 514.39,125.48 507.39,125.48 S 503.99,155.05 500.00,160.00 S 496.11,194.50 503.11,194.50 S 518.38,185.95 518.38,203.55 S 510.11,205.49 503.11,205.49 S 502.43,235.75 500.00,240.00 S 498.39,274.22 505.39,274.22 S 521.67,265.20 521.67,282.80 S 512.39,286.14 505.39,286.14 S 503.22,315.24 500.00,320.00 S 495.81,354.55 502.81,354.55 S 523.67,340.92 523.67,358.52 S 509.81,365.45 502.81,365.45 S 502.06,395.29 500.00,400.00 S 497.45,434.03 504.45,434.03 S 519.80,426.10 519.80,443.70 S 511.45,446.51 504.45,446.51 S 503.03,474.23 500.00,480.00 "></path><path stroke="#ff0000" fill="transparent" d="M 600,0 S 600.13,34.75 607.13,34.75 S 615.45,21.09 615.45,38.69 S 614.13,45.31 607.13,45.31 S 603.74,74.96 600.00,80.00 S 602.74,114.25 595.74,114.25 S 584.89,101.90 584.89,119.50 S 588.74,126.36 595.74,126.36 S 603.52,155.03 600.00,160.00 S 597.98,194.66 604.98,194.66 S 623.82,184.96 623.82,202.56 S 611.98,205.93 604.98,205.93 S 602.22,234.18 600.00,240.00 S 600.85,274.08 593.85,274.08 S 583.42,258.47 583.42,276.07 S 586.85,286.55 593.85,286.55 S 602.73,314.66 600.00,320.00 S 600.35,354.45 607.35,354.45 S 622.18,338.65 622.18,356.25 S 614.35,365.71 607.35,365.71 S 602.17,394.66 600.00,400.00 S 603.08,434.21 596.08,434.21 S 575.01,422.95 575.01,440.55 S 589.08,445.79 596.08,445.79 S 602.28,473.12 600.00,480.00 "></path><path stroke="#ff0000" fill="transparent" d="M 700,0 S 704.29,33.86 697.29,33.86 S 682.94,23.31 682.94,40.91 S 690.29,45.54 697.29,45.54 S 703.85,72.92 700.00,80.00 S 700.01,114.37 693.01,114.37 S 685.00,104.69 685.00,122.29 S 686.01,125.38 693.01,125.38 S 702.22,155.37 700.00,160.00 S 701.58,193.78 694.58,193.78 S 676.80,184.79 676.80,202.39 S 687.58,206.68 694.58,206.68 S 702.14,233.33 700.00,240.00 S 696.08,274.00 703.08,274.00 S 716.87,264.13 716.87,281.73 S 710.08,286.72 703.08,286.72 S 702.57,312.10 700.00,320.00 S 704.09,353.92 697.09,353.92 S 683.65,342.92 683.65,360.52 S 690.09,365.70 697.09,365.70 S 703.74,393.82 700.00,400.00 S 695.52,433.81 702.52,433.81 S 719.14,425.12 719.14,442.72 S 709.52,446.47 702.52,446.47 S 703.64,472.85 700.00,480.00 "></path><path stroke="#ff0000" fill="transparent" d="M 800,0 S 803.58,34.07 796.58,34.07 S 778.23,23.75 778.23,41.35 S 789.58,46.37 796.58,46.37 S 802.30,74.57 800.00,80.00 S 802.36,114.44 795.36,114.44 S 776.75,99.64 776.75,117.24 S 788.36,125.43 795.36,125.43 S 802.51,152.14 800.00,160.00 S 800.27,193.49 793.27,193.49 S 779.74,178.74 779.74,196.34 S 786.27,205.49 793.27,205.49 S 802.76,234.80 800.00,240.00 S 799.06,273.76 806.06,273.76 S 816.06,264.67 816.06,282.27 S 813.06,285.34 806.06,285.34 S 804.00,312.87 800.00,320.00 S 804.04,354.65 797.04,354.65 S 782.26,343.57 782.26,361.17 S 790.04,365.81 797.04,365.81 S 802.09,394.44 800.00,400.00 S 798.52,434.29 805.52,434.29 S 822.76,423.94 822.76,441.54 S 812.52,446.39 805.52,446.39 S 802.66,472.30 800.00,480.00 "></path><path stroke="#ff0000" fill="transparent" d="M 0,80 S 43.12,80.01 43.12,74.41 S 30.31,63.80 52.31,63.80 S 50.19,74.41 57.19,74.41 S 80.28,72.58 100.00,80.00 S 141.51,77.85 141.51,83.45 S 130.98,93.20 152.98,93.20 S 164.18,83.45 157.18,83.45 S 187.57,74.03 200.00,80.00 S 243.20,82.99 243.20,77.39 S 230.72,66.18 252.72,66.18 S 251.01,77.39 258.01,77.39 S 280.52,75.58 300.00,80.00 S 342.05,82.12 342.05,76.52 S 328.70,67.46 350.70,67.46 S 350.01,76.52 357.01,76.52 S 382.36,75.19 400.00,80.00 S 443.41,80.44 443.41,74.84 S 426.79,61.01 448.79,61.01 S 450.07,74.84 457.07,74.84 S 482.40,74.04 500.00,80.00 S 541.66,79.12 541.66,84.72 S 525.04,92.81 547.04,92.81 S 564.43,84.72 557.43,84.72 S 583.79,73.09 600.00,80.00 S 642.42,82.29 642.42,76.69 S 631.87,63.47 653.87,63.47 S 649.60,76.69 656.60,76.69 S 688.60,74.81 700.00,80.00 S 742.43,80.04 742.43,74.44 S 730.20,66.34 752.20,66.34 S 749.61,74.44 756.61,74.44 S 783.05,73.63 800.00,80.00 S 843.03,77.40 843.03,83.00 S 826.48,99.33 848.48,99.33 S 865.43,83.00 858.43,83.00 S 886.37,73.47 900.00,80.00 "></path><path stroke="#ff0000" fill="transparent" d="M 0,160 S 42.61,160.52 42.61,154.92 S 23.06,142.16 45.06,142.16 S 51.50,154.92 58.50,154.92 S 89.46,155.81 100.00,160.00 S 143.45,159.73 143.45,165.33 S 123.58,172.65 145.58,172.65 S 164.53,165.33 157.53,165.33 S 183.76,155.45 200.00,160.00 S 242.44,162.98 242.44,157.38 S 228.77,144.69 250.77,144.69 S 251.47,157.38 258.47,157.38 S 287.84,154.11 300.00,160.00 S 343.07,156.72 343.07,162.32 S 324.80,175.41 346.80,175.41 S 365.16,162.32 358.16,162.32 S 388.30,152.78 400.00,160.00 S 442.89,162.56 442.89,156.96 S 432.30,142.56 454.30,142.56 S 449.96,156.96 456.96,156.96 S 486.36,153.00 500.00,160.00 S 542.84,160.08 542.84,165.68 S 525.37,178.75 547.37,178.75 S 565.45,165.68 558.45,165.68 S 589.46,154.37 600.00,160.00 S 642.91,163.00 642.91,157.40 S 625.99,142.98 647.99,142.98 S 650.41,157.40 657.41,157.40 S 689.67,154.73 700.00,160.00 S 742.71,156.78 742.71,162.38 S 729.14,172.77 751.14,172.77 S 765.06,162.38 758.06,162.38 S 787.98,155.38 800.00,160.00 S 843.42,162.44 843.42,156.84 S 830.85,141.19 852.85,141.19 S 849.54,156.84 856.54,156.84 S 888.69,155.13 900.00,160.00 "></path><path stroke="#ff0000" fill="transparent" d="M 0,240 S 41.69,240.25 41.69,245.85 S 31.80,259.04 53.80,259.04 S 64.49,245.85 57.49,245.85 S 80.07,232.95 100.00,240.00 S 142.62,240.13 142.62,234.53 S 124.59,222.62 146.59,222.62 S 149.57,234.53 156.57,234.53 S 187.80,235.18 200.00,240.00 S 242.56,240.85 242.56,235.25 S 227.34,220.74 249.34,220.74 S 249.83,235.25 256.83,235.25 S 289.46,232.77 300.00,240.00 S 341.99,237.21 341.99,242.81 S 330.70,258.93 352.70,258.93 S 363.63,242.81 356.63,242.81 S 388.40,235.50 400.00,240.00 S 443.29,239.93 443.29,234.33 S 423.26,225.12 445.26,225.12 S 451.31,234.33 458.31,234.33 S 482.57,233.57 500.00,240.00 S 542.03,241.13 542.03,235.53 S 532.91,227.05 554.91,227.05 S 550.07,235.53 557.07,235.53 S 583.37,233.71 600.00,240.00 S 642.09,237.55 642.09,243.15 S 624.86,257.78 646.86,257.78 S 664.05,243.15 657.05,243.15 S 683.62,233.96 700.00,240.00 S 741.91,237.02 741.91,242.62 S 731.76,254.08 753.76,254.08 S 764.15,242.62 757.15,242.62 S 784.59,232.63 800.00,240.00 S 842.88,243.32 842.88,237.72 S 829.18,223.74 851.18,223.74 S 850.91,237.72 857.91,237.72 S 880.81,233.28 900.00,240.00 "></path><path stroke="#ff0000" fill="transparent" d="M 0,320 S 42.76,319.91 42.76,325.51 S 28.32,339.51 50.32,339.51 S 64.44,325.51 57.44,325.51 S 83.59,313.05 100.00,320.00 S 141.67,316.66 141.67,322.26 S 125.35,333.76 147.35,333.76 S 164.35,322.26 157.35,322.26 S 182.34,314.70 200.00,320.00 S 242.99,322.09 242.99,316.49 S 231.03,302.93 253.03,302.93 S 250.48,316.49 257.48,316.49 S 289.69,315.68 300.00,320.00 S 342.15,319.28 342.15,324.88 S 332.68,333.26 354.68,333.26 S 363.74,324.88 356.74,324.88 S 386.66,313.76 400.00,320.00 S 442.43,320.04 442.43,325.64 S 431.69,339.82 453.69,339.82 S 464.98,325.64 457.98,325.64 S 484.70,314.96 500.00,320.00 S 541.79,317.02 541.79,322.62 S 529.69,335.44 551.69,335.44 S 563.92,322.62 556.92,322.62 S 589.49,315.97 600.00,320.00 S 642.64,319.69 642.64,314.09 S 629.24,300.22 651.24,300.22 S 649.64,314.09 656.64,314.09 S 683.30,313.23 700.00,320.00 S 742.98,320.06 742.98,314.46 S 732.22,300.79 754.22,300.79 S 750.80,314.46 757.80,314.46 S 789.90,315.51 800.00,320.00 S 843.11,322.05 843.11,316.45 S 823.08,302.66 845.08,302.66 S 850.49,316.45 857.49,316.45 S 884.80,315.61 900.00,320.00 "></path><path stroke="#ff0000" fill="transparent" d="M 0,400 S 42.68,396.81 42.68,402.41 S 25.20,415.39 47.20,415.39 S 64.38,402.41 57.38,402.41 S 89.86,395.86 100.00,400.00 S 142.63,398.18 142.63,403.78 S 128.62,413.40 150.62,413.40 S 164.90,403.78 157.90,403.78 S 180.44,393.40 200.00,400.00 S 242.56,401.76 242.56,396.16 S 225.88,381.83 247.88,381.83 S 250.28,396.16 257.28,396.16 S 286.68,392.72 300.00,400.00 S 343.18,401.72 343.18,396.12 S 330.93,380.34 352.93,380.34 S 350.35,396.12 357.35,396.12 S 384.85,392.71 400.00,400.00 S 443.28,399.56 443.28,405.16 S 432.43,413.02 454.43,413.02 S 464.80,405.16 457.80,405.16 S 482.22,395.24 500.00,400.00 S 542.61,401.73 542.61,396.13 S 525.92,387.55 547.92,387.55 S 550.77,396.13 557.77,396.13 S 580.90,392.80 600.00,400.00 S 642.52,401.54 642.52,395.94 S 629.15,385.66 651.15,385.66 S 651.00,395.94 658.00,395.94 S 688.53,392.82 700.00,400.00 S 743.17,398.86 743.17,404.46 S 726.04,413.46 748.04,413.46 S 765.09,404.46 758.09,404.46 S 783.73,393.36 800.00,400.00 S 843.46,401.78 843.46,396.18 S 831.40,387.27 853.40,387.27 S 851.28,396.18 858.28,396.18 S 885.23,394.98 900.00,400.00 "></path></svg>